<?xml version="1.0" standalone="no"?>
<!DOCTYPE svg PUBLIC "-//W3C//DTD SVG 20010904//EN"
 "http://www.w3.org/TR/2001/REC-SVG-20010904/DTD/svg10.dtd">
<svg version="1.0" xmlns="http://www.w3.org/2000/svg"
 width="512.000000pt" height="512.000000pt" viewBox="0 0 512.000000 512.000000"
 preserveAspectRatio="xMidYMid meet">
<metadata>
Created by potrace 1.14, written by Peter Selinger 2001-2017
</metadata>
<g transform="translate(0.000000,512.000000) scale(0.100000,-0.100000)"
fill="#000000" stroke="none">
<path d="M2068 4932 c-9 -2 -20 -13 -25 -25 -4 -12 -7 -153 -8 -314 0 -160 -2
-294 -5 -296 -3 -3 -39 -8 -80 -11 -283 -25 -534 -96 -784 -222 -327 -164
-614 -421 -803 -719 -141 -222 -242 -488 -279 -727 -2 -16 -7 -43 -10 -60 -12
-70 -11 -414 2 -503 111 -750 636 -1364 1379 -1611 315 -104 666 -136 977 -88
25 4 65 -4 132 -25 285 -91 530 -113 862 -76 111 12 325 70 449 122 510 210
911 638 1084 1158 58 174 86 324 97 508 l6 97 -430 0 -429 0 0 163 c1 374 -97
717 -294 1033 -188 302 -505 583 -840 743 l-96 46 75 3 c174 5 438 76 564 152
l28 17 -88 60 c-305 210 -614 363 -854 424 -120 31 -321 36 -405 10 l-63 -19
0 68 c0 48 -4 71 -15 80 -14 12 -110 20 -147 12z m277 -520 c33 -35 87 -84
120 -109 58 -44 59 -45 25 -39 -56 9 -190 26 -198 25 -4 -1 -19 -1 -34 0 l-28
1 0 128 0 127 27 -35 c15 -19 54 -64 88 -98z"/>
</g>
</svg>
